<?xml version="1.0" encoding="UTF-8" standalone="no"?>
<svg
   xmlns:dc="http://purl.org/dc/elements/1.1/"
   xmlns:cc="http://creativecommons.org/ns#"
   xmlns:rdf="http://www.w3.org/1999/02/22-rdf-syntax-ns#"
   xmlns:svg="http://www.w3.org/2000/svg"
   xmlns="http://www.w3.org/2000/svg"
   xmlns:sodipodi="http://sodipodi.sourceforge.net/DTD/sodipodi-0.dtd"
   xmlns:inkscape="http://www.inkscape.org/namespaces/inkscape"
   inkscape:version="1.0 (4035a4f, 2020-05-01)"
   sodipodi:docname="Smart-classifier-logos_transparent.svg"
   id="svg909"
   preserveAspectRatio="xMidYMid meet"
   viewBox="0 0 261.97501 261.7879"
   height="261.7879pt"
   width="261.97501pt"
   version="1.0">
  <metadata
     id="metadata915">
    <rdf:RDF>
      <cc:Work
         rdf:about="">
        <dc:format>image/svg+xml</dc:format>
        <dc:type
           rdf:resource="http://purl.org/dc/dcmitype/StillImage" />
        <dc:title></dc:title>
      </cc:Work>
    </rdf:RDF>
  </metadata>
  <defs
     id="defs913" />
  <sodipodi:namedview
     inkscape:current-layer="svg909"
     inkscape:window-maximized="0"
     inkscape:window-y="0"
     inkscape:window-x="0"
     inkscape:cy="341.08388"
     inkscape:cx="174.63333"
     inkscape:zoom="0.305"
     fit-margin-bottom="0"
     fit-margin-right="0"
     fit-margin-left="0"
     fit-margin-top="0"
     showgrid="false"
     id="namedview911"
     inkscape:window-height="800"
     inkscape:window-width="1280"
     inkscape:pageshadow="2"
     inkscape:pageopacity="0"
     guidetolerance="10"
     gridtolerance="10"
     objecttolerance="10"
     borderopacity="1"
     bordercolor="#666666"
     pagecolor="#ffffff" />
  <path
     d="M 38.175,0.91290774 C 19.575,3.3129077 3.975,18.512908 0.975,37.012908 c -1.3,8.3 -1.3,177.800002 0,187.100002 1.4,9.6 5.2,17.1 12.4,24.3 7,6.9 14.6,11 23.2,12.4 7.9,1.3 180.9,1.3 188.8,0 3.3,-0.5 8.4,-2.1 11.3,-3.6 7,-3.4 16.2,-11.9 19.6,-18.2 5.7,-10.5 5.7,-9.7 5.7,-106.7 0,-53.100002 -0.4,-91.400002 -1,-95.000002 -3.1,-19.2 -18.5,-33.9000003 -38.1,-36.50000026 -9,-1.1 -175.6,-1.1 -184.7,0.1 z m 107.6,47.60000026 0.3,7.3 h 21.4 21.5 v 5.5 5.5 h -58 -58 v -5.5 -5.5 l 21.8,-0.2 21.7,-0.3 0.3,-7.3 0.3,-7.3 14.2,0.3 14.2,0.3 z m 52.2,40.3 v 7 h -4 c -2.5,0 -4,0.5 -4,1.2 0,1.6 -11.7,112.700002 -12.6,119.000002 l -0.6,4.8 h -45.2 -45.1 l -6.9,-62.5 -7,-62.500002 h -4.3 -4.3 v -7 -7 h 67 67 z"
     id="path833"
     style="fill:#28a745;stroke:none;stroke-width:0.1" />
</svg>
