<?xml version="1.0" standalone="no"?>
<!DOCTYPE svg PUBLIC "-//W3C//DTD SVG 20010904//EN"
 "http://www.w3.org/TR/2001/REC-SVG-20010904/DTD/svg10.dtd">
<svg version="1.0" xmlns="http://www.w3.org/2000/svg"
 width="1080.000000pt" height="1080.000000pt" viewBox="0 0 1080.000000 1080.000000"
 preserveAspectRatio="xMidYMid meet">

<g transform="translate(0.000000,1080.000000) scale(0.100000,-0.100000)"
fill="#32CD32" stroke="none">
<path d="M0 5400 l0 -5400 5400 0 5400 0 0 5400 0 5400 -5400 0 -5400 0 0
-5400z m7003 2164 c94 -21 238 -91 309 -151 112 -94 204 -236 245 -378 16 -55
18 -141 21 -1022 l3 -963 804 0 c443 0 805 -2 805 -5 0 -3 -63 -96 -141 -206
-77 -111 -138 -207 -136 -213 3 -7 64 -96 136 -199 73 -103 134 -194 137 -202
5 -13 -94 -15 -799 -15 l-805 0 -4 -197 c-4 -171 -8 -208 -28 -268 -68 -211
-202 -366 -391 -454 -164 -76 -49 -72 -1794 -69 l-1560 3 -80 28 c-250 88
-425 279 -485 530 -16 65 -20 117 -20 255 l0 172 -806 0 c-706 0 -805 2 -800
15 3 8 64 99 137 202 72 103 133 192 136 199 2 6 -59 102 -136 213 -78 111
-141 204 -141 207 0 2 362 4 805 4 l805 0 2 973 3 972 28 80 c88 249 277 422
532 486 65 16 176 18 1608 18 1368 1 1546 -1 1610 -15z"/>
<path d="M5158 6773 l-3 -118 -357 -3 -358 -2 0 -90 0 -90 960 0 960 0 0 90 0
90 -360 0 -360 0 0 120 0 120 -240 0 -239 0 -3 -117z"/>
<path d="M4297 6213 c-4 -3 -7 -55 -7 -115 l0 -108 65 0 c59 0 66 -2 74 -22 4
-13 30 -224 57 -470 l48 -448 873 0 c480 0 873 1 873 3 4 67 100 918 104 926
4 6 34 11 67 11 l60 0 -3 113 -3 112 -1101 3 c-605 1 -1104 -1 -1107 -5z"/>
<path d="M2150 4908 c-50 -26 -80 -74 -87 -142 -10 -81 32 -128 154 -176 94
-37 118 -58 108 -92 -12 -38 -26 -48 -66 -48 -43 0 -79 27 -79 58 0 30 -21 42
-72 42 -59 0 -65 -11 -44 -82 10 -35 28 -65 51 -88 l36 -35 99 0 c84 0 103 3
127 21 42 31 68 90 66 152 -1 75 -37 119 -124 150 -101 36 -134 56 -137 85 -4
28 31 67 59 67 38 0 70 -21 84 -54 13 -30 20 -34 57 -38 64 -7 71 -2 65 49 -6
53 -47 110 -98 135 -50 26 -143 24 -199 -4z"/>
<path d="M3230 4908 c-19 -13 -46 -44 -59 -68 -24 -42 -25 -54 -29 -266 -5
-248 -8 -240 69 -228 l39 7 0 88 0 89 85 0 85 0 0 -90 0 -89 35 -7 c19 -3 46
-3 60 0 l25 6 2 163 c3 279 -4 325 -58 378 -34 33 -38 34 -127 37 -83 3 -95 1
-127 -20z m166 -109 c12 -14 20 -42 24 -85 l5 -64 -88 0 c-77 0 -88 2 -83 16
3 9 6 35 6 58 0 61 29 96 79 96 26 0 44 -7 57 -21z"/>
<path d="M3720 4920 l-75 -5 -5 -41 c-9 -64 -1 -517 9 -527 5 -5 29 -5 55 -2
l46 7 0 114 c0 145 13 149 65 24 36 -86 67 -126 111 -140 51 -17 102 -5 110
25 10 40 -4 62 -44 72 -30 7 -42 17 -64 58 -29 53 -35 85 -16 85 19 0 77 50
93 80 8 16 15 53 15 82 0 135 -84 182 -300 168z m163 -132 c20 -23 23 -68 5
-86 -7 -7 -39 -12 -75 -12 l-63 0 0 59 c0 67 5 71 75 63 23 -2 47 -12 58 -24z"/>
<path d="M4863 4909 c-78 -38 -106 -144 -92 -351 10 -157 49 -209 164 -216 35
-2 80 -1 99 2 66 12 123 81 126 151 3 54 3 55 -50 55 -50 0 -51 0 -69 -44 -21
-47 -35 -56 -87 -56 -53 0 -67 31 -72 158 -2 73 0 120 10 147 26 79 105 86
141 12 18 -36 20 -37 73 -37 l54 0 0 38 c0 54 -37 111 -89 139 -58 31 -149 32
-208 2z"/>
<path d="M5300 4921 l-35 -6 -3 -281 c-2 -220 0 -283 10 -286 7 -2 68 -2 136
0 l123 4 -3 52 -3 51 -77 3 -78 3 3 226 c2 218 1 226 -18 232 -11 4 -36 5 -55
2z"/>
<path d="M5695 4913 c-75 -40 -87 -86 -93 -344 -4 -242 -7 -235 68 -223 l38 6
7 89 7 89 79 0 79 0 0 -85 c0 -92 8 -105 64 -105 58 0 56 -6 56 225 0 117 -3
227 -7 245 -3 19 -24 52 -48 76 l-42 44 -89 0 c-62 -1 -98 -6 -119 -17z m166
-123 c10 -14 22 -51 25 -82 l7 -58 -88 0 -87 0 4 64 c5 83 25 108 81 104 29
-2 45 -10 58 -28z"/>
<path d="M6200 4919 c-65 -26 -100 -85 -100 -167 0 -89 20 -107 203 -186 51
-22 57 -28 57 -54 0 -38 -28 -62 -73 -62 -42 0 -72 26 -81 71 -6 29 -7 30 -58
27 l-53 -3 2 -48 c2 -61 40 -123 88 -143 49 -20 162 -18 205 4 92 46 117 192
44 265 -14 14 -59 38 -100 53 -86 31 -124 57 -124 84 0 23 46 60 75 60 30 0
71 -34 79 -64 5 -20 14 -25 48 -28 65 -7 71 -2 66 52 -9 93 -84 151 -194 149
-32 0 -70 -5 -84 -10z"/>
<path d="M6685 4923 c-35 -9 -87 -54 -101 -89 -20 -49 -18 -121 6 -159 20 -32
61 -57 183 -109 51 -22 57 -28 57 -54 0 -38 -28 -62 -72 -62 -39 0 -65 22 -77
66 -7 27 -10 29 -62 29 l-54 0 2 -48 c2 -61 37 -117 89 -142 51 -24 188 -18
226 11 42 31 72 103 66 162 -8 78 -33 105 -142 147 -52 20 -102 45 -112 56
-17 19 -17 23 -3 47 32 58 117 50 140 -13 11 -29 18 -34 53 -38 61 -6 76 5 69
51 -8 56 -48 111 -96 133 -40 18 -123 24 -172 12z"/>
<path d="M8445 4920 l-80 -5 -3 -281 c-3 -315 -6 -300 68 -288 l39 6 3 111 c2
69 7 112 14 114 6 2 28 -34 49 -81 21 -47 51 -99 67 -115 33 -34 87 -49 127
-35 22 8 26 16 26 48 0 37 -2 40 -40 53 -35 11 -45 22 -68 68 -15 31 -27 57
-27 59 0 2 22 17 49 34 43 26 52 37 67 87 16 48 16 62 5 103 -27 103 -103 134
-296 122z m163 -133 c24 -22 28 -47 12 -78 -9 -16 -22 -19 -79 -19 l-69 0 -1
59 c0 49 3 60 17 63 35 8 98 -5 120 -25z"/>
<path d="M2548 4788 c-2 -73 -3 -202 -3 -286 0 -171 -2 -168 76 -160 l34 3 5
158 5 157 53 -90 c48 -82 56 -91 79 -88 17 2 32 14 43 33 61 109 73 131 79
140 3 6 8 -62 11 -150 l5 -160 50 0 50 0 3 288 2 288 -51 -3 -52 -3 -39 -65
c-22 -36 -53 -91 -69 -122 -16 -32 -33 -58 -37 -58 -4 0 -25 32 -45 72 -21 39
-51 95 -68 125 -30 53 -31 53 -80 53 l-49 0 -2 -132z"/>
<path d="M4090 4865 l0 -54 63 -3 62 -3 0 -220 c0 -121 4 -226 8 -232 10 -16
61 -17 88 -3 18 10 19 23 19 236 l0 225 48 -1 c26 -1 53 -1 60 -1 8 1 12 19
12 56 l0 55 -180 0 -180 0 0 -55z"/>
<path d="M7055 4907 c-3 -7 -4 -136 -3 -287 l3 -275 48 -3 c32 -2 49 1 52 10
6 20 14 538 8 554 -7 18 -102 19 -108 1z"/>
<path d="M7276 4911 c-3 -4 -9 -132 -12 -283 l-7 -275 24 -6 c13 -3 40 -3 59
1 l35 8 3 117 3 117 108 0 109 0 7 46 c3 26 3 50 -2 55 -4 4 -55 10 -113 11
l-105 3 0 50 0 50 100 2 c55 1 106 2 113 3 8 0 12 18 12 55 l0 55 -164 0 c-91
0 -167 -4 -170 -9z"/>
<path d="M7707 4754 c-4 -92 -7 -220 -7 -285 0 -116 0 -119 24 -125 13 -3 38
-4 57 -2 l34 3 0 285 0 285 -51 3 -51 3 -6 -167z"/>
<path d="M7927 4913 c-4 -3 -7 -132 -7 -285 0 -215 3 -278 13 -279 83 -5 321
1 329 9 5 5 8 29 6 53 l-3 44 -112 3 -113 3 0 64 0 65 110 0 110 0 0 55 0 55
-110 0 -110 0 0 56 0 55 107 -2 108 -2 7 44 c5 24 6 50 3 57 -3 9 -46 12 -168
12 -90 0 -167 -3 -170 -7z"/>
<path d="M4634 4168 c3 -24 11 -91 17 -150 l12 -108 748 0 c412 0 749 3 749 8
0 4 7 66 15 137 8 72 15 136 15 143 0 9 -163 12 -781 12 l-781 0 6 -42z"/>
</g>
</svg>
